<svg xmlns="http://www.w3.org/2000/svg" viewBox="0 0 242.81 145"><defs><style>.cls-1{fill:#263755;}.cls-2{fill:#3db8e0;}.cls-3{fill:#263754;}</style></defs><title>mvp</title><g id="Warstwa_2" data-name="Warstwa 2"><g id="Warstwa_1-2" data-name="Warstwa 1"><path class="cls-1" d="M.06,138.81,6.2,72.75c.22-3.29,2.19-5,5.48-5h7.89c3.07,0,4.93,1.32,6.13,4.17l19.5,47.66L64.81,71.87a5.9,5.9,0,0,1,6-4.17h8c3.29,0,5.15,1.76,5.48,5l6.14,66.06c.33,3.61-1.53,5.59-5,5.59H78.72c-3.4,0-5.26-1.76-5.59-5L69.63,97.51,52.76,139.36a5.89,5.89,0,0,1-6,4.16h-3a5.89,5.89,0,0,1-6-4.16L20.88,97.51l-3.61,41.85c-.22,3.28-2.19,5-5.48,5H5.1C1.6,144.4-.38,142.42.06,138.81Z"/><path class="cls-1" d="M147.89,81.61,132,122.32,116.54,72.8a5.59,5.59,0,0,0-5.92-4.49h-7.45c-3.84,0-5.48,2.41-4.16,6l23.33,66.39a5.87,5.87,0,0,0,6,4.27h7a5.66,5.66,0,0,0,5.92-4.27l20.85-53.82Z"/><path class="cls-1" d="M210.89,67.7h-8.71l3.59,14.68h2.82c6.13,0,10.19,4.82,10.19,11.17,0,6.14-4.05,11-10.19,11H194.13V98.81l-17.42-6.48v46.81c0,3.39,2,5.26,5.37,5.26h6.79c3.39,0,5.26-1.86,5.26-5.26V118.32h16.76c16.33,0,25.42-11,25.42-24.87S227.32,67.7,210.89,67.7Z"/><path class="cls-2" d="M194.29,81.41l-7.42-29,4.77-13.27C199.28,18,189,2.56,188.59,1.91A4.41,4.41,0,0,0,183.66.19C182.94.41,166,5.87,157.94,27c-2.23,5.85-3.86,10.15-5.11,13.48L128.81,58a4.39,4.39,0,0,0-1.62,4.79,4.33,4.33,0,0,0,4,3.14A121.2,121.2,0,0,1,160.82,72a118.89,118.89,0,0,1,26.61,14,4.39,4.39,0,0,0,6.85-4.63Zm-9.75-48.29a9.49,9.49,0,0,1-12,5.74A9.21,9.21,0,0,1,166.86,27a9.49,9.49,0,0,1,12-5.74A9.21,9.21,0,0,1,184.53,33.12Z"/><path class="cls-3" d="M240.74,39.41l-9-5.58,5.58-9a4.38,4.38,0,0,0-7.44-4.63l-5.58,9-9-5.58a4.38,4.38,0,0,0-4.63,7.44l9,5.58-5.58,9a4.38,4.38,0,1,0,7.44,4.63l5.58-9,9,5.58a4.38,4.38,0,1,0,4.63-7.44Z"/><path class="cls-3" d="M111.28,39.43A4.38,4.38,0,0,1,107,33.94l6.15-23.72a4.38,4.38,0,0,1,7.34-2L138.1,25.79a4.38,4.38,0,0,1-2,7.34l-23.72,6.15A4.39,4.39,0,0,1,111.28,39.43Zm8.47-19.59-2.36,9.09,9.09-2.36Z"/></g></g></svg>