<?xml version="1.0" standalone="no"?>
<!DOCTYPE svg PUBLIC "-//W3C//DTD SVG 20010904//EN"
 "http://www.w3.org/TR/2001/REC-SVG-20010904/DTD/svg10.dtd">
<svg version="1.0" xmlns="http://www.w3.org/2000/svg"
 width="512.000000pt" height="512.000000pt" viewBox="0 0 512.000000 512.000000"
 preserveAspectRatio="xMidYMid meet">
<metadata>
Created by potrace 1.11, written by Peter Selinger 2001-2013
</metadata>
<g transform="translate(0.000000,512.000000) scale(0.100000,-0.100000)"
fill="#000000" stroke="none">
<path d="M3777 4231 c-89 -45 -163 -99 -235 -174 -114 -117 -169 -211 -262
-454 l-67 -175 -259 -189 c-283 -207 -296 -221 -270 -283 17 -42 55 -62 118
-65 25 -1 55 -4 66 -6 10 -2 43 -6 73 -10 114 -14 389 -83 474 -120 222 -95
316 -144 471 -244 45 -30 89 -51 105 -51 41 0 89 45 89 82 0 17 -34 166 -76
331 l-77 300 20 61 c12 34 39 113 62 177 69 196 85 314 67 484 -9 85 -56 231
-97 303 -48 84 -87 91 -202 33z m2 -416 c60 -31 110 -114 106 -175 -5 -76 -49
-139 -119 -171 -58 -26 -105 -24 -167 9 -148 77 -127 289 35 348 37 13 109 8
145 -11z"/>
<path d="M2454 4123 c-44 -8 -61 -45 -109 -228 -25 -99 -53 -205 -62 -235 -31
-115 -32 -123 -18 -156 7 -18 26 -39 42 -48 27 -14 43 -11 264 46 129 33 239
61 244 63 6 1 24 6 42 10 59 14 96 81 71 129 -14 27 -404 416 -417 416 -5 0
-15 2 -23 4 -7 2 -23 1 -34 -1z m199 -404 c-2 -5 -19 -10 -66 -19 -1 0 -24 -7
-51 -15 -27 -8 -51 -14 -52 -12 -3 3 35 158 42 169 5 8 131 -114 127 -123z"/>
<path d="M4841 3873 c-12 -10 -32 -35 -44 -55 -12 -20 -37 -62 -55 -92 -19
-31 -37 -56 -42 -56 -4 0 -42 21 -84 48 -109 67 -118 72 -149 72 -41 0 -67
-17 -83 -55 -28 -67 -4 -94 179 -204 20 -12 37 -24 37 -26 0 -2 -28 -50 -61
-106 -34 -56 -62 -109 -62 -118 0 -41 5 -54 28 -76 30 -31 82 -33 117 -5 14
11 50 60 79 109 30 50 59 91 65 91 5 0 53 -27 105 -60 111 -70 145 -76 190
-31 49 49 36 109 -34 153 -23 14 -70 43 -104 65 l-61 38 64 105 c37 61 64 115
64 131 0 15 -12 41 -26 58 -20 25 -34 31 -64 31 -21 0 -47 -8 -59 -17z"/>
<path d="M209 2845 c-33 -18 -47 -53 -54 -135 -5 -63 -10 -108 -20 -207 -3
-27 -7 -79 -10 -118 -3 -38 -7 -86 -10 -105 -4 -35 -10 -93 -20 -220 -3 -36
-8 -84 -11 -108 -2 -24 -7 -73 -10 -110 -2 -37 -7 -78 -9 -92 -2 -14 -7 -63
-10 -110 -3 -47 -7 -96 -10 -110 -12 -67 -15 -188 -6 -213 16 -42 62 -56 172
-55 52 1 105 5 120 10 36 12 56 53 63 128 4 36 9 85 11 110 2 25 7 79 10 120
4 41 8 91 10 110 2 19 7 73 11 120 3 47 8 99 9 115 7 67 18 211 19 227 0 10 3
14 7 10 8 -7 78 -178 219 -532 44 -113 85 -214 90 -225 5 -11 20 -46 34 -77
33 -77 67 -98 161 -98 90 0 128 21 156 88 11 26 75 182 141 347 66 165 126
314 133 330 8 17 28 64 44 105 16 41 31 68 31 60 1 -8 3 -22 4 -30 2 -8 7 -60
10 -115 4 -55 9 -113 11 -130 4 -30 13 -137 20 -230 11 -138 16 -204 20 -245
3 -25 7 -64 9 -88 6 -58 28 -89 73 -101 55 -14 223 -8 251 10 26 16 45 74 38
116 -3 15 -7 62 -11 103 -3 41 -8 95 -10 120 -3 25 -7 70 -10 100 -3 30 -7 75
-10 100 -2 25 -7 79 -10 120 -4 41 -8 86 -10 100 -2 14 -7 57 -9 95 -8 95 -17
195 -21 225 -2 14 -7 59 -10 100 -3 41 -8 96 -10 123 -3 26 -7 71 -10 100 -11
104 -17 125 -41 148 -24 22 -35 24 -151 27 -188 5 -189 4 -272 -203 -29 -71
-60 -147 -70 -170 -10 -22 -78 -187 -152 -367 -73 -181 -136 -325 -139 -320
-4 4 -96 225 -204 492 -109 267 -208 500 -219 517 -12 18 -35 37 -51 43 -45
16 -256 12 -287 -5z"/>
<path d="M4246 2843 c2 -10 11 -47 20 -83 9 -36 18 -74 20 -85 2 -11 10 -42
17 -70 l13 -50 53 -2 c74 -4 134 -33 170 -83 91 -126 42 -317 -94 -363 -28 -9
-91 -13 -204 -12 l-164 0 -2 58 c-1 32 -4 59 -6 62 -4 3 -129 51 -154 59 -5 2
-17 6 -25 9 -8 4 -52 20 -97 36 l-83 30 0 -498 c0 -327 4 -509 11 -529 17 -49
56 -61 186 -59 108 2 114 4 140 30 l28 27 0 242 0 242 225 2 c223 1 231 2 350
39 50 16 150 87 187 133 77 96 115 206 115 337 1 91 -5 133 -28 202 -43 128
-133 233 -248 288 -90 43 -160 55 -312 55 -111 0 -122 -2 -118 -17z"/>
<path d="M2123 2837 c-24 -11 -44 -56 -38 -86 4 -21 7 -30 215 -621 324 -922
288 -830 330 -858 33 -22 43 -23 155 -20 101 2 124 6 146 23 20 15 46 70 103
215 43 107 78 200 79 205 2 6 30 80 63 165 34 85 87 223 119 305 32 83 71 182
86 220 15 39 24 73 21 76 -15 15 -286 109 -292 102 -4 -5 -69 -168 -144 -363
-76 -195 -144 -368 -151 -385 -7 -16 -16 -40 -20 -52 -7 -25 -25 -31 -25 -10
0 12 -20 78 -130 427 -27 85 -76 243 -110 350 -104 335 -91 320 -271 318 -63
-1 -124 -6 -136 -11z"/>
</g>
</svg>
